<?xml version="1.0" encoding="UTF-8"?>
<svg id="Layer_2" data-name="Layer 2" xmlns="http://www.w3.org/2000/svg" viewBox="0 0 798.39 514">
  <defs>
    <style>
      .cls-1 {
        stroke-width: 0px;
      }
    </style>
  </defs>
  <g id="Layer_1-2" data-name="Layer 1" fill="#1d2a51">
    <g>
      <path class="cls-1" d="m757.16,298.85h-228.56v101.31h-34.15V113.83h33.77v174.35h228.62V5.94h34.35v6.76c0,151.64.02,303.28-.03,454.91,0,13.68-.47,27.37,7.23,40.26h-41.23v-209.01Z"/>
      <path class="cls-1" d="m0,5.95h33.92c.1,2.22.29,4.47.29,6.71.02,131.32.01,262.65.02,393.97,0,18.33,2.5,36.16,10.38,52.98,16.46,35.15,50.53,48.11,84.3,42.43,37.97-6.38,60.76-34.99,65.18-70.97.81-6.59,1.06-13.29,1.06-19.93.06-132.82.04-265.65.04-398.47,0-2.13,0-4.25,0-6.68h9.72c.08,1.84.23,3.61.23,5.38,0,133.32-.02,266.65.04,399.97,0,19.08-2.8,37.5-11.53,54.68-11.74,23.1-30.48,37.67-55.5,43.53-29.87,6.99-59.25,4.85-87.4-7.9-27.71-12.55-42.94-34.94-48.48-64.22-1.57-8.29-2.16-16.88-2.17-25.33C-.03,278.42,0,144.76,0,11.1c0-1.62,0-3.25,0-5.16Z"/>
      <path class="cls-1" d="m662.1,428.59c2.52,2.32,5.05,4.63,7.64,7.01-19.72,20.45-41.82,36.9-66.65,49.53-44.25,22.52-91.38,31.87-140.75,28.03-68.54-5.33-126.07-33.88-171.75-85.3-35.88-40.39-56.77-87.79-62.57-141.53-8.18-75.77,12.7-142.91,62.64-200.27C328.51,42.56,376.61,15.66,433.27,4.59c29-5.66,58.26-5.62,87.58-2.43,35.42,3.86,68.55,14.48,99.27,32.63,14.66,8.66,41.61,29.55,50.27,39.24-5.39,5.88-10.76,11.73-16.47,17.95-2.89-3.06-5.26-5.55-7.6-8.06-23.96-25.82-51.06-47.25-84.26-60.08-19.24-7.43-39.2-11.61-59.76-13.06-34.82-2.44-68.85.89-101.56,13.84-40.71,16.12-72.28,43.21-95.73,79.97-22.07,34.59-34.39,72.62-39.17,113.17-6.51,55.34-.38,109.06,22.33,160.28,19.77,44.61,50.13,79.9,93.77,102.83,27.57,14.49,57.17,21.33,88.2,22.76,40.51,1.88,79.25-5.18,116.05-22.27,25.73-11.95,48.82-27.88,69.49-47.32,1.82-1.71,3.64-3.42,5.49-5.1.22-.2.59-.24.92-.36Z"/>
    </g>
  </g>
</svg>